<?xml version="1.0" encoding="UTF-8"?>
<svg id="Layer_2" data-name="Layer 2" xmlns="http://www.w3.org/2000/svg" viewBox="0 0 45.37 51.98">
  <defs>
    <style>
      .cls-1 {
        fill: #db1a5c;
      }
    </style>
  </defs>
  <g id="Layer_1-2" data-name="Layer 1">
    <g>
      <g>
        <path d="M5.32,42.07l4.7,4.68,11.83-11.89h0c-2.6-2.58-6.8-2.57-9.38.03l-7.15,7.19Z"/>
        <path d="M13.46,22.71l-13.46.04.02,6.63,13.46-.04c1.83,0,3.31-1.49,3.31-3.32h0c0-1.83-1.49-3.31-3.32-3.31Z"/>
        <path d="M21.85,17.15L9.96,5.32l-4.68,4.7,7.19,7.15c2.6,2.58,6.8,2.57,9.38-.03h0Z"/>
        <path d="M29.3,41.82c0-3.66-2.99-6.62-6.65-6.61h0l.04,16.77,6.63-.02-.03-10.14Z"/>
        <path d="M22.7,16.79c3.66,0,6.62-2.99,6.61-6.65l-.03-10.14-6.63.02.04,16.77h0Z"/>
      </g>
      <path class="cls-1" d="M45.28,10l-4.7-4.68-15.98,16.07-.02-.02h0c-2.58,2.6-2.57,6.8.03,9.38l16.09,16,4.68-4.7-13.62-13.55c-1.35-1.35-1.36-3.54-.01-4.89l13.55-13.62Z"/>
    </g>
  </g>
</svg>