<?xml version="1.0" encoding="UTF-8"?>
<svg id="Layer_2" data-name="Layer 2" xmlns="http://www.w3.org/2000/svg" viewBox="0 0 170.68 52.73">
  <defs>
    <style>
      .cls-1 {
        fill: #db1a5c;
      }
    </style>
  </defs>
  <g id="Layer_1-2" data-name="Layer 1">
    <g>
      <path class="cls-1" d="M45.28,10l-4.7-4.68-15.98,16.07-.02-.02h0c-2.58,2.6-2.57,6.8.03,9.38l16.09,16,4.68-4.7-13.62-13.55c-1.35-1.35-1.36-3.54-.01-4.89l13.55-13.62Z"/>
      <g>
        <g>
          <rect class="cls-1" x="56.39" y="35.41" width="4.22" height="4.22"/>
          <rect class="cls-1" x="62.06" y="29.74" width="4.87" height="4.22"/>
        </g>
        <g>
          <path d="M12.47,34.88l-7.15,7.19,4.7,4.68,11.83-11.89c-2.6-2.58-6.8-2.57-9.38.03Z"/>
          <path d="M16.78,26.02h0c0-1.83-1.49-3.31-3.32-3.31l-13.46.04.02,6.63,13.46-.04c1.83,0,3.31-1.49,3.31-3.32Z"/>
          <path d="M5.28,10.02l7.19,7.15c2.6,2.58,6.8,2.57,9.38-.03L9.96,5.32l-4.68,4.7Z"/>
          <path d="M22.65,35.21l.04,16.77,6.63-.02-.03-10.14c0-3.66-2.99-6.62-6.65-6.61Z"/>
          <path d="M22.7,16.79c3.66,0,6.62-2.99,6.61-6.65l-.03-10.14-6.63.02.04,16.77h0Z"/>
          <path d="M66.2,16.67c.68.24,1.23.63,1.66,1.18.43.55.76,1.27,1,2.16l1.21,4.46h5.97l-1.84-5.28c-.31-.87-.66-1.66-1.07-2.34-.4-.69-.9-1.27-1.49-1.75-.59-.48-1.29-.84-2.1-1.07-.81-.23-1.75-.33-2.82-.31v-.43c1.05-.44,2.05-1.02,3-1.75.95-.73,1.83-1.57,2.64-2.51.81-.94,1.5-1.94,2.07-3,.57-1.06.98-2.13,1.25-3.2h-6.07c-.2.9-.52,1.8-.97,2.72-.45.92-1.01,1.8-1.69,2.66-.68.85-1.46,1.63-2.34,2.33-.89.7-1.85,1.27-2.9,1.71V2.83h-5.31v21.64h5.31v-8.17h1.87c1.07,0,1.95.12,2.62.36Z"/>
          <polygon points="83.08 24.47 94.5 24.47 94.5 20.18 83.08 20.18 83.08 15.52 92.89 15.52 92.89 11.62 83.08 11.62 83.08 7.12 94.43 7.12 94.43 2.83 83.08 2.83 81.67 2.83 77.77 2.83 77.77 24.47 81.67 24.47 83.08 24.47"/>
          <polygon points="101.51 24.47 106.83 24.47 106.83 7.25 112.89 7.25 112.89 2.83 106.83 2.83 101.51 2.83 95.45 2.83 95.45 7.25 101.51 7.25 101.51 24.47"/>
          <path d="M117.91,2.83l-7.31,21.64h5.74l1.17-4h8.32l1.16,4h5.74l-7.28-21.64h-7.54ZM118.56,16.86l2.89-9.87h.46l2.87,9.87h-6.22Z"/>
          <path d="M148.87,13.29c-.85-.48-1.77-.87-2.75-1.18-.98-.31-1.95-.57-2.89-.79-.94-.22-1.78-.44-2.53-.67-.74-.23-1.33-.51-1.75-.84-.43-.33-.64-.74-.64-1.25,0-.42.14-.78.41-1.1.27-.32.68-.57,1.23-.75.55-.19,1.21-.28,2-.28.68,0,1.28.08,1.82.25.54.16.98.41,1.33.74.35.33.62.74.82,1.23.2.49.3,1.06.3,1.69l4.76-1.21c0-1.36-.36-2.54-1.08-3.56-.72-1.02-1.75-1.8-3.08-2.36-1.33-.56-2.93-.84-4.79-.84s-3.41.27-4.71.82c-1.3.55-2.3,1.31-2.98,2.3-.69.98-1.03,2.15-1.03,3.51,0,1.16.25,2.13.74,2.9.49.78,1.15,1.41,1.98,1.9s1.75.89,2.77,1.2c1.02.31,2.05.59,3.1.85.94.22,1.76.44,2.48.67.71.23,1.27.51,1.67.84.4.33.61.74.61,1.25,0,.39-.15.77-.46,1.11-.31.35-.75.63-1.35.84-.59.21-1.31.31-2.16.31-.92,0-1.75-.15-2.49-.44-.74-.29-1.33-.75-1.77-1.36-.44-.61-.69-1.4-.75-2.36l-4.72,1.44c.07,1.12.32,2.1.77,2.95.45.85,1.08,1.56,1.9,2.13.82.57,1.8,1,2.94,1.28,1.14.28,2.43.43,3.87.43,1.99,0,3.68-.26,5.07-.79,1.39-.52,2.44-1.28,3.16-2.26.72-.98,1.08-2.16,1.08-3.54,0-1.25-.26-2.28-.79-3.1-.53-.82-1.21-1.47-2.07-1.95Z"/>
          <polygon points="159.27 20.18 159.27 15.52 169.07 15.52 169.07 11.62 159.27 11.62 159.27 7.12 170.61 7.12 170.61 2.83 159.27 2.83 157.86 2.83 153.95 2.83 153.95 24.47 157.86 24.47 159.27 24.47 170.68 24.47 170.68 20.18 159.27 20.18"/>
          <path d="M62.06,35.41v11.5c0,1.53.56,2.83,1.69,3.87,1.14,1,2.57,1.52,4.22,1.52h2.79v-4.55h-1.98c-1.08,0-1.86-.74-1.86-1.78v-6.34h4.22v-4.22h-9.1Z"/>
          <path d="M81.57,34.99c-2.57,0-4.68.84-6.4,2.57-1.72,1.69-2.57,3.8-2.57,6.3s.88,4.65,2.63,6.34c1.76,1.69,3.96,2.53,6.6,2.53,3.61,0,6.56-1.75,8.09-4.58l-4.71-1.07c-.84,1.01-1.95,1.49-3.35,1.49-1.98,0-3.57-1.17-4.13-2.96h12.58c.13-.55.19-1.14.19-1.76,0-2.5-.84-4.61-2.57-6.3-1.72-1.72-3.83-2.57-6.37-2.57ZM77.77,42.01c.55-1.72,2.08-2.86,3.8-2.86,1.82,0,3.35,1.14,3.96,2.86h-7.77Z"/>
          <path d="M100.59,39.8c1.66,0,3.02.98,3.64,2.44l4.91-1.43c-1.3-3.51-4.55-5.82-8.55-5.82-2.57,0-4.74.84-6.47,2.53-1.72,1.69-2.57,3.8-2.57,6.34s.84,4.61,2.57,6.34c1.72,1.69,3.9,2.53,6.47,2.53,4,0,7.25-2.31,8.55-5.82l-4.91-1.43c-.62,1.46-1.98,2.44-3.64,2.44-2.24,0-3.96-1.75-3.96-4.09,0-1.14.39-2.11,1.14-2.86.75-.78,1.69-1.17,2.83-1.17Z"/>
          <path d="M120.19,34.99c-1.98,0-3.54.71-4.74,2.14v-7.82h-4.87v23h4.87v-9.55c0-1.85,1.4-3.25,3.22-3.25s3.22,1.4,3.22,3.25v9.55h4.84v-10.85c0-1.85-.62-3.38-1.88-4.61-1.27-1.23-2.79-1.85-4.65-1.85Z"/>
        </g>
      </g>
    </g>
  </g>
</svg>